<svg xmlns="http://www.w3.org/2000/svg" viewBox="0 0 44.21 44.21"><defs><style>.cls-1{fill:#231815;}.cls-2{fill:#fff;}</style></defs><title>Asset 41</title><g id="Layer_2" data-name="Layer 2"><g id="レイヤー_1" data-name="レイヤー 1"><circle class="cls-1" cx="22.1" cy="22.1" r="22.1"/><path class="cls-2" d="M14.64,18.11A3.55,3.55,0,0,1,15.85,16a3,3,0,0,1,1.9-.61,2.85,2.85,0,0,1,2.13.81,2.58,2.58,0,0,1,.7,1.89,3.19,3.19,0,0,1-.5,1.72,11.18,11.18,0,0,1-1.7,1.83,11.09,11.09,0,0,0-2.9,3.61H20.6V26h-6v-.72a12.17,12.17,0,0,1,3.16-4.24,8.9,8.9,0,0,0,1.58-1.78A2.45,2.45,0,0,0,19.62,18,1.82,1.82,0,0,0,19,16.59a1.93,1.93,0,0,0-1.3-.44c-1.2,0-1.92.73-2.17,2.19Z"/><path class="cls-2" d="M29.93,15.34v.84H24.34v3.76h4.21v.83H24.34V26h-1V15.34Z"/></g></g></svg>